<svg xmlns="http://www.w3.org/2000/svg" viewBox="0 0 128 128" fill="none" stroke="#5b3a29" stroke-width="5" stroke-linecap="round" stroke-linejoin="round"><rect x="18" y="14" width="92" height="102" rx="6" fill="#c8986a"/><rect x="26" y="22" width="76" height="40" rx="2" fill="#e8c9a0"/><rect x="26" y="70" width="76" height="38" rx="2" fill="#e8c9a0"/>
<rect x="30" y="26" width="11" height="36" rx="2" fill="#f07c95"/><rect x="43" y="30" width="11" height="32" rx="2" fill="#7fb3e0"/><rect x="56" y="24" width="11" height="38" rx="2" fill="#f5c542"/>
<path d="M72 60l14-30 10 4-14 26z" fill="#9ad49f"/>
<rect x="30" y="74" width="12" height="34" rx="2" fill="#9ad49f"/><rect x="44" y="80" width="11" height="28" rx="2" fill="#b39ddb"/>
<path d="M68 92h22v8a8 8 0 0 1-8 8h-6a8 8 0 0 1-8-8z" fill="#fff"/><path d="M90 95h3a4 4 0 0 1 0 8h-3" stroke-width="4"/><path d="M76 84q2-4 0-8M83 84q2-4 0-8" stroke-width="3"/></svg>
